HIERARCHY
ROOT Hips
{
 OFFSET 0.000000 0.000000 0.000000
 CHANNELS 6 Xposition Yposition Zposition Yrotation Xrotation Zrotation
 JOINT Chest
 {
  OFFSET 0.000000 9.585900 0.002600
  CHANNELS 3 Yrotation Xrotation Zrotation
  JOINT Chest2
  {
   OFFSET 0.000000 9.601200 -0.005300
   CHANNELS 3 Yrotation Xrotation Zrotation
   JOINT Chest3
   {
    OFFSET 0.000000 9.561800 0.000000
    CHANNELS 3 Yrotation Xrotation Zrotation
    JOINT Chest4
    {
     OFFSET 0.000000 9.552100 0.000000
     CHANNELS 3 Yrotation Xrotation Zrotation
     JOINT Neck
     {
      OFFSET 0.000000 14.453000 0.000000
      CHANNELS 3 Yrotation Xrotation Zrotation
      JOINT Head
      {
       OFFSET 0.000000 8.936500 -0.011300
       CHANNELS 3 Yrotation Xrotation Zrotation
       End Site
       {
        OFFSET 0.000000 17.073600 -0.006000
       }
      }
     }
     JOINT RightCollar
     {
      OFFSET -2.921100 9.558500 0.000000
      CHANNELS 3 Yrotation Xrotation Zrotation
      JOINT RightShoulder
      {
       OFFSET -13.519700 0.000000 0.000000
       CHANNELS 3 Yrotation Xrotation Zrotation
       JOINT RightElbow
       {
        OFFSET 0.000000 -29.696600 0.000000
        CHANNELS 3 Yrotation Xrotation Zrotation
        JOINT RightWrist
        {
         OFFSET 0.000000 -24.004700 0.000000
         CHANNELS 3 Yrotation Xrotation Zrotation
         End Site
         {
          OFFSET 0.000000 -17.728500 0.000000
         }
        }
       }
      }
     }
     JOINT LeftCollar
     {
      OFFSET 2.921100 9.558500 0.000000
      CHANNELS 3 Yrotation Xrotation Zrotation
      JOINT LeftShoulder
      {
       OFFSET 13.519700 0.000000 0.000000
       CHANNELS 3 Yrotation Xrotation Zrotation
       JOINT LeftElbow
       {
        OFFSET 0.000000 -29.696600 0.000000
        CHANNELS 3 Yrotation Xrotation Zrotation
        JOINT LeftWrist
        {
         OFFSET 0.000000 -24.004700 0.000000
         CHANNELS 3 Yrotation Xrotation Zrotation
         End Site
         {
          OFFSET 0.000000 -17.728500 0.000000
         }
        }
       }
      }
     }
    }
   }
  }
 }
 JOINT RightHip
 {
  OFFSET -7.771700 -0.012900 -0.001300
  CHANNELS 3 Yrotation Xrotation Zrotation
  JOINT RightKnee
  {
   OFFSET 0.000000 -40.869800 0.001200
   CHANNELS 3 Yrotation Xrotation Zrotation
   JOINT RightAnkle
   {
    OFFSET 0.000000 -39.717900 0.002100
    CHANNELS 3 Yrotation Xrotation Zrotation
    JOINT RightToe
    {
     OFFSET 0.000000 -4.965400 11.033500
     CHANNELS 3 Yrotation Xrotation Zrotation
     End Site
     {
      OFFSET 0.000000 -1.423100 5.872300
     }
    }
   }
  }
 }
 JOINT LeftHip
 {
  OFFSET 7.771700 -0.012900 -0.001300
  CHANNELS 3 Yrotation Xrotation Zrotation
  JOINT LeftKnee
  {
   OFFSET 0.000000 -40.869800 0.001200
   CHANNELS 3 Yrotation Xrotation Zrotation
   JOINT LeftAnkle
   {
    OFFSET 0.000000 -39.717900 0.002100
    CHANNELS 3 Yrotation Xrotation Zrotation
    JOINT LeftToe
    {
     OFFSET 0.000000 -4.965400 11.033500
     CHANNELS 3 Yrotation Xrotation Zrotation
     End Site
     {
      OFFSET 0.000000 -1.423100 5.872300
     }
    }
   }
  }
 }
}
MOTION
Frames: 8
Frame Time: 0.008333
0.000000 85.388000 0.000000 0.000000 -5.767877 0.000000 0.000000 11.653817 0.000000 0.000000 -5.885947 0.000000 0.000000 -0.000000 0.000000 0.000000 -0.000000 0.000000 0.000000 12.528835 0.000000 0.000000 0.711642 0.000000 0.000000 -0.000000 0.000000 0.000000 0.000000 -90.000000 0.000000 -2.309062 0.000000 0.000000 2.309062 0.000000 0.000000 -0.000000 0.000000 0.000000 -0.000000 90.000000 0.000000 -2.309062 0.000000 0.000000 2.309062 0.000000 0.000000 8.520406 0.000000 0.000000 1.905762 0.000000 -0.000000 -4.658285 0.000000 0.000000 -0.000000 0.000000 0.000000 8.520406 0.000000 0.000000 1.905762 0.000000 -0.000000 -4.658285 0.000000 0.000000 -0.000000 0.000000
-57.538892 57.853677 11.620270 179.460311 -50.831009 -3.628228 2.813090 20.890631 2.589770 1.424237 12.002816 1.377325 1.839227 15.019261 1.779165 1.422892 11.981138 1.377844 -0.573861 20.900581 3.500326 -2.060953 3.075417 6.531461 5.219834 3.615909 2.065124 -13.773783 -30.123506 -8.898364 -38.320640 -65.081585 67.238165 13.976147 5.967157 -21.864780 -7.535338 -1.159852 -1.705070 1.497130 -16.237051 11.115206 19.372093 -31.029096 -68.330852 6.168792 -0.981459 15.529985 5.988374 -20.308063 -2.767959 -33.680268 74.489898 -38.158941 6.300053 -16.173146 13.030687 0.037669 -0.116582 -0.029989 -7.429528 -18.357916 4.814415 86.061975 81.362440 85.176784 0.514838 -21.412952 -18.083364 -0.007656 0.042338 -0.006892
-57.532369 57.849409 11.613392 179.408841 -50.776184 -3.573335 2.823041 20.914225 2.585426 1.426077 11.956439 1.357536 1.863405 15.012636 1.782777 1.424340 11.978383 1.364810 -0.591388 20.872621 3.511484 -2.106723 2.977493 6.533484 5.432052 3.444088 2.078254 -13.417545 -30.240574 -9.483426 -38.566656 -64.344710 67.188109 13.853323 5.835481 -21.757177 -7.445364 -1.229607 -1.720839 1.364495 -16.287544 11.149009 19.267267 -30.939949 -68.262058 6.212423 -0.953962 15.549804 6.001103 -20.382149 -2.794644 -33.741243 74.517490 -38.224055 6.321517 -16.180133 13.016790 0.018901 -0.123272 -0.028651 -7.409806 -18.405631 4.801763 86.097578 81.363703 85.218447 0.526579 -21.431450 -18.099472 -0.003406 0.047103 -0.009252
-57.523767 57.848900 11.601481 179.328146 -50.746130 -3.498660 2.877737 20.948618 2.600847 1.429563 11.949589 1.352502 1.877847 14.983211 1.781123 1.393690 11.951139 1.351504 -0.603059 20.841425 3.505582 -2.138569 2.884355 6.529697 5.660980 3.310241 2.067723 -13.115317 -30.319385 -10.031282 -38.872530 -63.686894 67.243363 13.744218 5.682980 -21.693855 -7.327381 -1.273927 -1.752478 1.226271 -16.296699 11.184773 19.233022 -30.892371 -68.232598 6.221256 -0.895296 15.551157 6.030475 -20.430526 -2.811510 -33.788930 74.542638 -38.281861 6.352330 -16.139110 13.002063 0.022885 -0.177676 -0.024321 -7.380442 -18.420775 4.786815 86.161710 81.362816 85.296314 0.543354 -21.476163 -18.134256 0.015472 0.065943 -0.010194
-57.516061 57.842461 11.592568 179.280515 -50.664671 -3.437654 2.914688 20.925466 2.610503 1.444786 11.948759 1.360334 1.883621 14.956887 1.777875 1.384374 11.940019 1.344908 -0.632636 20.789281 3.499548 -2.178686 2.781073 6.516975 5.847241 3.178029 2.036009 -12.859460 -30.372694 -10.539932 -39.195639 -63.152133 67.359573 13.625930 5.534208 -21.674343 -7.237084 -1.329185 -1.789060 1.078136 -16.315154 11.222339 19.198163 -30.843540 -68.204957 6.222292 -0.834404 15.549438 6.041473 -20.530708 -2.843115 -33.812114 74.566477 -38.325022 6.365915 -16.126420 13.007314 0.003657 -0.183420 -0.022882 -7.361898 -18.499443 4.769642 86.206004 81.363333 85.346033 0.551596 -21.491926 -18.144094 0.024366 0.070286 -0.013891
-57.509978 57.836839 11.581534 179.271487 -50.583998 -3.392635 2.931208 20.907428 2.616334 1.466131 11.946288 1.372620 1.889094 14.926850 1.774675 1.443999 11.942582 1.364661 -0.676081 20.680858 3.478758 -2.278651 2.709042 6.517406 5.934690 3.052914 1.979887 -12.638390 -30.410561 -11.007309 -39.525564 -62.751855 67.523171 13.508793 5.406656 -21.684254 -7.225209 -1.389909 -1.838617 0.939041 -16.472290 11.272232 19.034876 -30.680247 -68.099770 6.249786 -0.827846 15.532030 6.039630 -20.624221 -2.891151 -33.854469 74.602369 -38.373942 6.359614 -16.113656 13.013132 0.014323 -0.209494 -0.037496 -7.355692 -18.581696 4.740317 86.229519 81.364296 85.372236 0.554449 -21.497910 -18.143081 0.018462 0.072476 -0.017603
-57.503189 57.827361 11.572801 179.302225 -50.467662 -3.381220 2.928050 20.856727 2.628564 1.481707 11.929225 1.377067 1.908721 14.905391 1.780660 1.481661 11.929178 1.376993 -0.733329 20.618197 3.460486 -2.339936 2.601948 6.502698 6.011594 2.962708 1.924138 -12.440907 -30.439334 -11.429454 -39.837706 -62.477736 67.692886 13.405979 5.292604 -21.704302 -7.204008 -1.425095 -1.885645 0.824619 -16.565122 11.315788 18.920258 -30.582310 -68.040347 6.254211 -0.789022 15.512133 6.024396 -20.745510 -2.944469 -33.931954 74.640333 -38.438692 6.344433 -16.179297 13.005871 0.015317 -0.166415 -0.042168 -7.387627 -18.696334 4.710639 86.283801 81.364178 85.434221 0.567733 -21.500374 -18.161264 0.009086 0.066972 -0.014679
-57.499679 57.816686 11.564165 179.225835 -50.342858 -3.268315 2.992408 20.796124 2.620368 1.499357 11.909924 1.382385 1.930901 14.881096 1.787807 1.499324 11.909893 1.382349 -0.764376 20.556770 3.445783 -2.395140 2.489129 6.487281 6.076570 2.893813 1.874558 -12.257207 -30.464968 -11.805663 -40.099924 -62.320682 67.816253 13.321173 5.181407 -21.726828 -7.172990 -1.449886 -1.924654 0.695485 -16.583879 11.353412 18.866259 -30.550385 -68.014156 6.241286 -0.739548 15.498334 6.065568 -20.885152 -3.014662 -33.939961 74.666678 -38.468231 6.367987 -16.146035 13.010436 0.016266 -0.184298 -0.036089 -7.345355 -18.822943 4.664920 86.292447 81.361477 85.450067 0.576524 -21.539245 -18.177262 0.018832 0.099496 -0.012108
